<svg xmlns="http://www.w3.org/2000/svg" xmlns:xlink="http://www.w3.org/1999/xlink" width="910" height="602.75"><rect width="910" height="602.75" rx="5" ry="5" class="a"/><svg y="0%" x="0%"><circle cx="20" cy="20" r="6" fill="#ff5f58"/><circle cx="40" cy="20" r="6" fill="#ffbd2e"/><circle cx="60" cy="20" r="6" fill="#18c132"/></svg><svg height="542.75" viewBox="0 0 87 54.275" width="870" x="15" xmlns="http://www.w3.org/2000/svg" xmlns:xlink="http://www.w3.org/1999/xlink" y="50"><style>@keyframes m{0%{transform:translateX(0)}1.5%{transform:translateX(-87px)}1.9%{transform:translateX(-522px)}22.1%{transform:translateX(-609px)}25.5%{transform:translateX(-696px)}34.2%{transform:translateX(-783px)}41.6%{transform:translateX(-957px)}41.7%{transform:translateX(-1044px)}45%{transform:translateX(-1131px)}45.1%{transform:translateX(-1218px)}45.3%{transform:translateX(-1305px)}46.3%{transform:translateX(-1479px)}46.6%{transform:translateX(-1827px)}46.7%{transform:translateX(-1914px)}to{transform:translateX(-2001px)}}.a{fill:#282d35}.h,.i,.j,.k{fill:#d290e4;white-space:pre}.i,.j,.k{fill:#a8cc8c}.j,.k{fill:#b9c0cb}.k{fill:#e88388}</style><g font-family="Monaco,Consolas,Menlo,'Bitstream Vera Sans Mono','Powerline Symbols',monospace" font-size="1.67"><defs><symbol id="1"><text y="1.67" style="white-space:pre" fill="#71bef2" font-weight="700">odc</text><text x="4.008" y="1.67" style="white-space:pre" fill="#6f7783">git/master*</text></symbol><symbol id="2"><text y="1.67" class="h">❯</text></symbol><symbol id="3"><text y="1.67" class="h">❯</text><text x="2.004" y="1.67" class="i">odc</text></symbol><symbol id="4"><text y="1.67" class="j">chalk</text><text x="6.012" y="1.67" class="k">^2.4.2</text><text x="13.026" y="1.67" class="j">→</text><text x="15.03" y="1.67" class="i">^3.0.0</text></symbol><symbol id="5"><text y="1.67" class="j">find-up</text><text x="8.016" y="1.67" class="k">~3.1.0</text><text x="15.03" y="1.67" class="j">→</text><text x="17.034" y="1.67" class="i">~4.1.0</text></symbol><symbol id="6"><text y="1.67" class="j">getopts</text><text x="8.016" y="1.67" class="k">2.0.0</text><text x="14.028" y="1.67" class="j">→</text><text x="16.032" y="1.67" class="i">2.2.5</text></symbol><symbol id="7"><text y="1.67" class="j">✨</text><text x="3.006" y="1.67" class="j">Done</text><text x="8.016" y="1.67" class="j">in</text><text x="11.022" y="1.67" class="j">0.17s</text></symbol><symbol id="a"><path fill="transparent" d="M0 0h87v25H0z"/></symbol></defs><path class="a" d="M0 0h87v54.275H0z"/><g style="animation-duration:5.026644s;animation-iteration-count:infinite;animation-name:m;animation-timing-function:steps(1,end)"><svg width="2088"><svg><use xlink:href="#a"/></svg><svg x="87"><use xlink:href="#a"/></svg><svg x="174"><use xlink:href="#a"/><use xlink:href="#1" y="2.171"/></svg><svg x="261"><use xlink:href="#a"/><use xlink:href="#1" y="2.171"/></svg><svg x="348"><use xlink:href="#a"/><use xlink:href="#1" y="2.171"/><use xlink:href="#2" y="4.342"/></svg><svg x="435"><use xlink:href="#a"/><use xlink:href="#1" y="2.171"/><use xlink:href="#2" y="4.342"/></svg><svg x="522"><use xlink:href="#a"/><use xlink:href="#1" y="2.171"/><use xlink:href="#2" y="4.342"/></svg><svg x="609"><use xlink:href="#a"/><use xlink:href="#1" y="2.171"/><text y="6.012" class="h">❯</text><text x="2.004" y="6.012" style="white-space:pre" fill="#e88388" font-weight="700">o</text></svg><svg x="696"><use xlink:href="#a"/><use xlink:href="#1" y="2.171"/><text y="6.012" class="h">❯</text><text x="2.004" y="6.012" class="i">od</text></svg><svg x="783"><use xlink:href="#a"/><use xlink:href="#1" y="2.171"/><use xlink:href="#3" y="4.342"/></svg><svg x="870"><use xlink:href="#a"/><use xlink:href="#1" y="2.171"/><use xlink:href="#3" y="4.342"/></svg><svg x="957"><use xlink:href="#a"/><use xlink:href="#1" y="2.171"/><use xlink:href="#3" y="4.342"/></svg><svg x="1044"><use xlink:href="#a"/><use xlink:href="#1" y="2.171"/><use xlink:href="#3" y="4.342"/></svg><svg x="1131"><use xlink:href="#a"/><use xlink:href="#1" y="2.171"/><use xlink:href="#3" y="4.342"/><use xlink:href="#4" y="6.513"/></svg><svg x="1218"><use xlink:href="#a"/><use xlink:href="#1" y="2.171"/><use xlink:href="#3" y="4.342"/><use xlink:href="#4" y="6.513"/><use xlink:href="#5" y="8.684"/></svg><svg x="1305"><use xlink:href="#a"/><use xlink:href="#1" y="2.171"/><use xlink:href="#3" y="4.342"/><use xlink:href="#4" y="6.513"/><use xlink:href="#5" y="8.684"/><use xlink:href="#6" y="10.855"/></svg><svg x="1392"><use xlink:href="#a"/><use xlink:href="#1" y="2.171"/><use xlink:href="#3" y="4.342"/><use xlink:href="#4" y="6.513"/><use xlink:href="#5" y="8.684"/><use xlink:href="#6" y="10.855"/><use xlink:href="#7" y="15.197"/></svg><svg x="1479"><use xlink:href="#a"/><use xlink:href="#1" y="2.171"/><use xlink:href="#3" y="4.342"/><use xlink:href="#4" y="6.513"/><use xlink:href="#5" y="8.684"/><use xlink:href="#6" y="10.855"/><use xlink:href="#7" y="15.197"/></svg><svg x="1566"><use xlink:href="#a"/><use xlink:href="#1" y="2.171"/><use xlink:href="#3" y="4.342"/><use xlink:href="#4" y="6.513"/><use xlink:href="#5" y="8.684"/><use xlink:href="#6" y="10.855"/><use xlink:href="#7" y="15.197"/><use xlink:href="#1" y="19.539"/></svg><svg x="1653"><use xlink:href="#a"/><use xlink:href="#1" y="2.171"/><use xlink:href="#3" y="4.342"/><use xlink:href="#4" y="6.513"/><use xlink:href="#5" y="8.684"/><use xlink:href="#6" y="10.855"/><use xlink:href="#7" y="15.197"/><use xlink:href="#1" y="19.539"/></svg><svg x="1740"><use xlink:href="#a"/><use xlink:href="#1" y="2.171"/><use xlink:href="#3" y="4.342"/><use xlink:href="#4" y="6.513"/><use xlink:href="#5" y="8.684"/><use xlink:href="#6" y="10.855"/><use xlink:href="#7" y="15.197"/><use xlink:href="#1" y="19.539"/><use xlink:href="#2" y="21.71"/></svg><svg x="1827"><use xlink:href="#a"/><use xlink:href="#1" y="2.171"/><use xlink:href="#3" y="4.342"/><use xlink:href="#4" y="6.513"/><use xlink:href="#5" y="8.684"/><use xlink:href="#6" y="10.855"/><use xlink:href="#7" y="15.197"/><use xlink:href="#1" y="19.539"/><use xlink:href="#2" y="21.71"/></svg><svg x="1914"><use xlink:href="#a"/><use xlink:href="#1" y="2.171"/><use xlink:href="#3" y="4.342"/><use xlink:href="#4" y="6.513"/><use xlink:href="#5" y="8.684"/><use xlink:href="#6" y="10.855"/><use xlink:href="#7" y="15.197"/><use xlink:href="#1" y="19.539"/><use xlink:href="#2" y="21.71"/></svg><svg x="2001"><use xlink:href="#a"/><use xlink:href="#1" y="2.171"/><use xlink:href="#3" y="4.342"/><use xlink:href="#4" y="6.513"/><use xlink:href="#5" y="8.684"/><use xlink:href="#6" y="10.855"/><use xlink:href="#7" y="15.197"/><use xlink:href="#1" y="19.539"/><use xlink:href="#2" y="21.71"/></svg></svg></g></g></svg></svg>